<?xml version="1.0" standalone="no"?>
<!DOCTYPE svg PUBLIC "-//W3C//DTD SVG 20010904//EN"
 "http://www.w3.org/TR/2001/REC-SVG-20010904/DTD/svg10.dtd">
<svg version="1.0" xmlns="http://www.w3.org/2000/svg"
 width="512.000000pt" height="512.000000pt" viewBox="0 0 512.000000 512.000000"
 preserveAspectRatio="xMidYMid meet">
<metadata>
Created by potrace 1.16, written by Peter Selinger 2001-2019
</metadata>
<g transform="translate(0.000000,512.000000) scale(0.100000,-0.100000)"
fill="#000000" stroke="none">
<path d="M2077 5094 l-27 -27 0 -303 0 -302 -48 -11 c-82 -17 -158 -50 -234
-100 -168 -111 -276 -277 -307 -472 l-10 -62 -229 -231 c-143 -144 -238 -248
-252 -276 -17 -33 -25 -68 -28 -128 -7 -127 17 -168 216 -365 134 -132 170
-162 228 -189 64 -30 77 -33 169 -33 139 0 193 26 339 163 169 160 303 214
444 180 l52 -13 -39 -58 c-66 -100 -172 -214 -281 -305 -195 -161 -278 -250
-390 -416 -106 -159 -203 -400 -237 -592 l-17 -94 -30 0 c-44 0 -127 -42 -171
-85 -20 -21 -48 -61 -61 -89 -23 -49 -24 -60 -24 -279 l0 -228 -37 -15 c-189
-76 -333 -209 -406 -374 -34 -78 -57 -182 -57 -261 0 -69 2 -79 26 -103 l27
-26 1847 0 1847 0 27 26 c24 24 26 34 26 103 -1 276 -179 521 -462 635 l-38
15 0 228 c0 219 -1 230 -24 279 -13 28 -41 68 -61 89 -43 42 -126 85 -167 85
-26 0 -26 2 -33 77 -10 96 -1 218 22 306 l17 67 286 0 286 0 27 27 c46 50 141
422 172 683 17 143 20 452 5 585 -36 321 -104 576 -214 801 -264 542 -777 963
-1326 1090 -62 14 -140 18 -450 21 l-376 4 -27 -27z m453 -199 c49 -24 69 -44
93 -90 19 -36 22 -62 27 -273 l5 -234 27 -23 c15 -13 46 -26 70 -30 128 -21
327 -106 441 -189 197 -141 342 -331 412 -536 59 -175 101 -475 91 -660 -12
-221 -37 -339 -154 -730 -92 -303 -106 -379 -100 -542 l5 -128 -904 0 c-496 0
-903 3 -903 8 0 4 9 46 19 93 52 231 174 467 338 650 26 28 113 107 193 174
153 129 246 229 345 373 57 84 61 87 90 81 17 -4 69 -7 116 -8 98 -1 201 22
301 67 86 39 108 64 108 120 0 36 -5 49 -31 73 -41 38 -69 37 -182 -8 -84 -34
-101 -37 -192 -37 -97 -1 -103 1 -200 43 -214 93 -404 90 -585 -12 -76 -42
-122 -78 -216 -169 -87 -83 -131 -108 -191 -108 -65 0 -114 34 -261 184 -133
134 -142 146 -142 182 0 36 11 49 239 279 131 132 246 251 255 265 9 13 16 43
16 65 0 160 119 349 267 424 69 34 166 61 226 61 29 0 46 7 68 29 l29 29 0
303 0 302 123 -5 c90 -4 131 -9 157 -23z m446 -31 c448 -128 892 -522 1104
-979 119 -255 190 -610 190 -950 0 -275 -30 -483 -111 -757 l-20 -68 -190 0
c-177 0 -190 1 -185 18 3 9 16 55 30 102 37 124 82 322 97 425 17 116 17 413
0 535 -43 314 -105 501 -232 689 -168 252 -429 446 -721 536 l-88 27 0 178 c0
128 -4 190 -15 226 -8 27 -15 50 -15 52 0 6 75 -11 156 -34z m710 -3623 c45
-30 49 -47 52 -248 l4 -193 -425 0 -424 0 -27 -26 c-37 -38 -37 -110 0 -147
l25 -25 462 -5 c500 -4 504 -5 617 -62 107 -54 218 -193 246 -307 l6 -28
-1682 0 -1682 0 6 28 c28 114 139 253 246 307 113 57 117 58 617 62 l462 5 25
25 c37 37 37 109 0 147 l-27 26 -423 0 -424 0 0 169 c0 93 3 182 6 200 7 36
46 78 77 84 12 3 522 4 1132 3 933 -1 1113 -3 1131 -15z"/>
<path d="M1966 3734 c-21 -21 -26 -36 -26 -74 0 -38 5 -53 26 -74 26 -26 28
-26 174 -26 146 0 148 0 174 26 21 21 26 36 26 74 0 38 -5 53 -26 74 -26 26
-28 26 -174 26 -146 0 -148 0 -174 -26z"/>
<path d="M2466 774 c-21 -21 -26 -36 -26 -74 0 -66 34 -100 100 -100 66 0 100
34 100 100 0 38 -5 53 -26 74 -21 21 -36 26 -74 26 -38 0 -53 -5 -74 -26z"/>
</g>
</svg>
